Patient4_TMGait_0pt4_03_right_35_EMG.mot
version=1
nRows=36
nColumns=33
inDegrees=no
endheader
time	1LAddLong	2LGlutMax	3LGlutMed	4LIliopsoas	5LSemiMemb	6LBicFemLong	7LRecFem	8LVastMed	9LVastLat	10LGasMed	11LTibAnt	12lTibPost	13LPeroneusLong	14LSol	15LExtDigLong	16LFlexDigLong	17RAddLong	18RGlutMax	19RGlutMed	20RIliopsoas	21RSemiMemb	22RBicFemLong	23RRecFem	24RVastMed	25RVastLat	26RGasMed	27RTibAnt	28RTibPost	29RPeroneusLong	30RSol	31RExtDigLong	32RFlexDigLong
46.12	-0.006104	-0.015717	0.061188	0.00351	0.010376	-0.052032	-0.087738	0.017395	-0.02655	-0.012817	-0.006866	0.071106	-0.0914	-0.12177	0.002441	0.003815	-0.022583	-0.11993	-0.19424	0.059357	-0.30487	0.002747	0.4454	-0.035248	-0.28198	0.007172	-0.040894	-0.049896	0.27786	0.084839	-0.001678	-0.009613
46.121	-0.010834	0.009918	0.070801	0.004883	0.013275	-0.037384	-0.070953	0.015411	-0.034027	-0.002747	-0.00824	0.027008	-0.055389	-0.14587	-0.014191	-0.003052	-0.018616	-0.2565	-0.29221	0.083923	-0.15167	-0.022888	0.33783	-0.085907	-0.26215	0.005035	-0.028687	-0.029144	0.53116	-0.11734	-0.000916	-0.010376
46.122	-0.009003	-0.033417	0.051422	0.006104	0.012512	-0.044556	-0.087433	0.009918	-0.023956	-0.007935	-0.000153	-0.021362	-0.031738	0.13886	-0.007477	-0.003052	-0.022278	-0.32745	-0.45425	0.030823	-0.20569	-0.061188	0.25253	-0.10361	-0.21179	0.011597	-0.032349	-0.015106	-0.40695	-0.42343	-0.003815	-0.00946
46.123	-0.009003	-0.01236	0.055695	-0.005798	0.015259	-0.042419	-0.06424	0.016937	-0.02121	0.013275	-0.000305	0.010376	0.02182	0.12436	-0.026093	0.012665	-0.000458	-0.39444	-0.54443	-0.048981	-0.085449	-0.092163	0.18448	-0.097351	-0.14389	0.00824	0.025787	-0.010986	-0.21042	-0.18799	-0.003357	0.005035
46.124	0.00473	-0.012207	0.052795	0.000305	0.017395	-0.020905	-0.066681	0.019684	-0.00824	0.055084	0.010986	-0.001678	-0.054779	0.11414	-0.019836	0.037079	0.007782	-0.4567	-0.72342	-0.044403	-0.21088	-0.11795	0.23697	-0.27512	-0.052948	0.00885	0.10193	-0.006256	-0.34256	0.097198	-0.001831	0.005188
46.125	0.025787	-0.036926	0.042725	0	0.01297	-0.029602	-0.054474	0.007629	-0.000458	0.053101	-0.000305	0.003967	-0.037842	0.048828	0.002594	0.032196	0.003204	-0.4982	-1.1113	-0.040283	-0.4425	-0.22201	0.30472	-0.32181	0.008392	0.015106	0.065918	-0.002441	-0.56564	-0.16098	0.001526	0.003052
46.126	0.023346	-0.022736	0.048981	0.00885	0.007019	-0.023499	-0.055084	0.011292	0.012817	0.021973	-0.001526	0.002441	0.037994	0.099182	0.003662	0.02243	-0.014191	-0.33417	-0.45776	-0.050964	-0.42572	-0.20371	0.34607	-0.18417	-0.018768	0.006409	0.009613	-0.005646	0.42343	-0.15472	-0.003815	0.000153
46.127	0.004425	-0.033569	0.043488	0.006256	0.011139	-0.030212	-0.036163	0.007477	0.000916	0.026855	-0.003815	0.005188	-0.10239	0.014343	-0.004578	0.016785	-0.004425	-0.26627	-0.31052	-0.041656	-0.15564	-0.086517	0.35706	-0.05249	-0.036163	0.000153	0.039215	-0.013123	-0.13016	-0.030823	-0.005493	-0.00351
46.128	0.001068	-0.020905	0.059509	0.005493	0.012207	-0.02655	-0.045776	0.016937	0.015564	0.040588	0.001068	-0.001068	-0.17548	-0.077057	0.001221	-0.002289	0.017242	-0.37125	-0.23025	-0.095673	0.18646	-0.18097	0.41214	0.024414	-0.05127	-0.013428	0.13107	-0.017395	-1.2386	0.016022	-0.006256	0.00351
46.129	-0.014954	-0.077515	0.045776	0.014343	0.014038	-0.033569	-0.033264	0.013123	0.035095	0.039063	0.003052	0.002747	-0.20508	-0.038757	0.004272	0.005341	0.029755	-0.47897	-0.12985	-0.075073	0.16693	-0.37613	0.45425	0.066376	-0.035706	-0.007629	0.15625	-0.01709	-0.67673	-0.048523	-0.005493	0.008087
46.13	-0.011749	-0.077362	0.054474	0.014801	0.017395	-0.029449	-0.052032	0.010681	0.025787	0.034943	0.002289	0.006104	-0.12695	-0.10239	0.014954	-0.007629	0.076447	-0.60928	-0.19104	0.032501	-0.14465	-0.49774	0.49454	-0.019836	-0.084991	0.030823	0.03418	-0.013123	0.20142	-0.16998	-0.003815	0.007324
46.131	-0.006866	-0.058899	0.058594	0.010529	0.01358	-0.028381	-0.052795	0.006866	0.028381	-0.00351	-0.003662	0.00351	0.035095	-0.13489	0.026245	-0.011597	0.075989	-0.63324	-0.50995	0.070496	-0.28854	-0.18829	0.59815	-0.066376	-0.11078	0.04425	-0.10513	-0.018158	1.2161	-0.18738	-0.003967	0.014343
46.132	-0.010986	-0.058136	0.06958	-0.004425	0.009766	-0.037231	-0.042725	0.006409	0.045319	0.010529	-0.002289	0.007019	-0.004425	-0.090027	0.010986	-0.017395	0.049438	-0.56	-0.81741	0.12894	-0.55542	-0.077362	0.62057	-0.10819	-0.098572	0.032654	-0.068665	-0.013275	0.91812	-0.21255	-0.001678	0.016327
46.133	-0.006714	-0.066376	0.072479	-0.011139	0.009918	-0.025787	-0.021667	0.007782	0.034485	-0.000153	-0.002289	0.002441	0.013733	-0.036316	0.019226	-0.009003	-0.003967	-0.55496	-1.2938	0.23377	-0.091095	0.028992	0.70755	-0.16785	-0.11154	0.029144	0.000916	-0.011444	-0.049133	-0.055237	-0.005035	0.00351
46.134	-0.007782	-0.04776	0.058441	-0.002136	0.012207	-0.023499	-0.019226	0.00473	0.038757	-0.006104	0.001221	-0.000458	-0.030365	0.093231	0.019379	-0.011597	-0.015106	-0.63248	-1.0678	0.27237	0.14618	-0.056	0.70587	-0.27344	-0.19486	0.010223	0.035553	-0.006714	-0.42496	0.027161	-0.002441	0.007935
46.135	-0.012665	-0.039063	0.066223	-0.009613	0.014343	-0.025635	-0.014648	0.003815	0.041809	-0.003052	0.004272	0.003357	-0.014191	0.18249	-0.001984	-0.00412	-0.092316	-0.68832	-0.35019	0.15076	0.38269	-0.14587	0.32501	-0.19333	-0.24796	0.004425	0.055389	-0.006866	-0.16373	0.054779	-0.00061	-0.003052
46.136	-0.007935	-0.030975	0.079193	0.001831	0.011444	-0.019226	-0.008087	0.007782	0.037384	0.003662	0.001526	0.001526	-0.01709	0.28748	-0.003052	-0.00473	-0.12177	-0.75104	-0.019226	0.045929	0.22614	-0.18326	-0.009155	0.030518	-0.16647	-0.013275	0.020752	-0.009003	-0.34271	-0.15793	-0.003357	-0.007019
46.137	0.001831	-0.017548	0.075989	0.00061	0.011444	-0.060272	0.012054	-0.004425	0.061646	0.00885	0	0.00412	-0.03952	0.3122	-0.008698	-0.004883	-0.087738	-0.91476	0.1268	0.008392	0.012512	-0.19211	0.004272	0.10147	-0.046234	-0.015717	0.065765	-0.0383	0.48157	-0.33539	-0.005188	-0.000763
46.138	0.000305	0.006256	0.079498	0.00412	0.014648	-0.041046	-0.003052	0.009613	0.073547	0.011139	-0.006409	0.003052	-0.011597	0.26459	0.003662	-0.006714	-0.04425	-0.77148	0.87265	-0.061646	-0.024872	-0.2121	0.052643	0.092926	0.043335	-0.00946	0.1416	-0.049896	1.2325	-0.33463	0.000916	-0.00412
46.139	0.003204	-0.016022	0.080109	0.016632	0.0177	-0.028839	-0.006409	0.008698	0.085297	0.006256	-0.000916	0.004272	-0.015717	0.2533	0.006561	0.004883	0.011597	-0.71945	-0.14358	0.035095	-0.032959	-0.11124	0.18799	0.047302	0.061798	-0.047302	0.1619	0.028229	-0.34882	0.006714	-0.005188	0.004883
46.14	-0.005951	-0.00946	0.063934	0.006104	0.013275	-0.037079	0.009155	-0.001221	0.094147	0.021515	-0.011444	0.00885	-0.032806	0.26474	0.003662	-0.006866	0.029297	-0.75897	-0.69717	0.058899	-0.019989	0.034332	0.16022	0.10559	0.14191	-0.10834	0.052185	0.014648	-0.18066	0.26093	-0.001678	-0.010834
46.141	-0.002899	-0.001221	0.067749	0.016174	0.013885	-0.028076	0.028076	0.010223	0.09903	0.013733	-0.00946	0.003662	-0.026245	0.22278	0.016174	-0.005188	-0.004272	-0.73059	-0.73044	-0.003052	0.007782	-0.083008	0.28564	0.093079	0.079803	-0.018158	-0.10513	0.002441	1.0324	0.14236	0.005798	-0.005493
46.142	-0.010071	-0.003662	0.07019	-0.000305	0.016022	-0.027618	0.021973	0.005646	0.091248	0.011902	-0.007019	-0.005951	-0.024414	0.087128	0.010681	0.003815	-0.029144	-0.63995	-0.53802	-0.027771	-0.007324	-0.16861	0.32135	0.10223	-0.000153	-0.006714	-0.043945	-0.001373	-0.20477	-0.025482	-0.004425	-0.000305
46.143	-0.005646	-0.023956	0.059814	0.010529	0.01297	-0.027313	0.023041	-0.000916	0.10117	0.007629	-0.002289	0.000458	-0.038605	0.11017	0.007019	0.013733	-0.03479	-0.6842	0.18585	-0.079193	-0.34515	-0.10986	0.16068	0.11917	-0.041351	0.010223	0.027161	-0.000763	-0.65979	-0.14465	-0.004272	-0.001373
46.144	-0.00351	0.032043	0.063019	0.014343	0.011139	-0.024261	0.027008	0.002747	0.089722	0.004883	-0.004578	0.001068	-0.043182	0.13687	0.00824	0.000153	-0.00412	-0.73334	0.16968	-0.040436	-0.23972	-0.096436	0.168	0.019226	-0.058136	0.010986	0.046692	-0.006104	-0.19867	-0.13534	-0.003815	-0.005646
46.145	-0.004578	0.034943	0.075684	0.025177	0.000916	-0.036621	0.053558	0.005035	0.093384	0.016022	-0.005035	0.002289	-0.037689	0.14023	0.007019	0.006714	0.014343	-0.75943	0.19379	-0.067596	-0.020599	0.024872	0.27191	-0.02594	-0.018768	0.007935	0.05249	-0.010071	0.5304	-0.14923	-0.002899	0
46.146	-0.009308	0.039978	0.066223	0.013733	0.03067	-0.028839	0.064392	0.004425	0.095062	0.007019	0.003815	0.001373	-0.021057	0.11978	0.010071	0.006104	-0.033875	-0.74097	-0.25482	-0.041046	-0.012054	0.19806	0.32257	0.019379	0.004883	0.010071	0.005951	-0.001984	1.1604	-0.16159	-0.002899	-0.005951
46.147	-0.000763	0.062714	0.056458	0.00473	0.018616	-0.033875	0.103	0.003357	0.092163	0.001526	-0.002747	0.000763	-0.032196	0.14572	0.006714	0.002136	-0.055084	-0.83801	-1.0561	0.036469	-0.001221	0.27313	0.41885	-0.032501	-0.088348	0.007935	-0.007019	-0.004425	-0.55771	-0.11215	-0.001373	-0.001984
46.148	-0.006714	0.038147	0.052185	0.001678	0.020447	-0.037384	0.11368	-0.001373	0.10757	0.007935	0.002441	-0.001526	-0.040283	0.15457	-0.000305	0.012665	-0.058136	-0.88394	-1.0788	0.034485	-0.017395	0.19486	0.41412	-0.036469	-0.10361	-0.010071	-0.029602	-0.001221	-1.0359	0.047607	-0.007324	0.000763
46.149	-0.010071	0.048218	0.054779	0.004578	0.017395	-0.029907	0.10757	0.005341	0.11017	-0.001068	0.001831	-0.002136	-0.047607	0.15549	0.006256	0.010376	-0.046234	-0.95856	-0.60593	-0.026398	0.06012	0.10468	0.085144	0.06546	-0.043182	-0.025787	-0.016785	-0.004272	-0.3862	0.077362	-0.003662	-0.000916
46.15	-0.007019	0.01709	0.051422	0.008698	0.014801	-0.031738	0.12924	0.005493	0.11704	-0.010071	0.001526	-0.002899	-0.040436	0.16876	-0.004272	0.014038	-0.011292	-1.0127	0.28183	-0.053864	0.080566	0.090027	-0.19943	0.16663	0.065155	-0.041351	-0.094452	-0.019684	0.18692	0.076294	-0.008545	-0.004272
46.151	-0.009918	0.055237	0.057983	0.015259	0.0177	-0.0383	0.11536	0.007935	0.11078	0.001526	0.00351	0.002899	-0.042114	0.16937	-0.003967	0.00824	0.020752	-1.075	0.1796	-0.064697	0.03418	0.055542	-0.076294	0.2742	0.003967	-0.057983	-0.02243	-0.020905	0.1622	0.073853	-0.004578	0.001678
46.152	-0.00946	0.053406	0.063324	0.002747	0.010834	-0.029755	0.16327	0.003967	0.13016	0.004425	-0.006104	0.000305	-0.039368	0.17044	-0.00351	0.014191	0.007324	-1.1124	-0.66025	-0.03418	-0.16449	0.032806	0.053101	0.35843	-0.001678	-0.050964	-0.042419	-0.017853	0.59403	-0.19241	-0.001373	-0.006104
46.153	-0.006104	0.061798	0.059967	0.005493	0.017395	-0.035095	0.20584	0.006256	0.14343	0.005951	0.011902	0.000458	-0.028992	0.16434	-0.010834	0.018158	-0.003357	-1.1473	-1.2709	0.043793	-0.14496	0.088348	-0.021667	0.29022	-0.058289	-0.031281	0.032196	-0.006409	0.44434	-0.45273	-0.004578	-0.006866
46.154	-0.002899	0.069427	0.081024	0.004883	0.022888	-0.041962	0.20233	0.012665	0.14328	0.005646	-0.004883	0.00473	-0.030212	0.16647	-0.005951	0.016174	0.01709	-1.1188	-0.80978	0.067139	0.18036	0.071564	-0.23987	0.14603	0.022736	-0.039673	0.018463	-0.014038	0.26428	0.12054	-0.003204	-0.005951
46.155	-0.003204	0.11002	0.099335	0.00885	0.010681	-0.027771	0.23651	0.009918	0.16922	0.015106	0.000916	0.001221	-0.023499	0.19501	-0.00412	0.045013	0.028687	-1.1073	-0.27054	0.009613	-0.13184	0.023346	-0.35599	-0.041351	0.11902	-0.026245	0.084991	-0.014343	-0.42664	0.13931	-0.003052	-0.007324
